<?xml version="1.0" encoding="UTF-8" standalone="no"?>
<!-- Created with Inkscape (http://www.inkscape.org/) -->

<svg
   xmlns:dc="http://purl.org/dc/elements/1.1/"
   xmlns:cc="http://creativecommons.org/ns#"
   xmlns:rdf="http://www.w3.org/1999/02/22-rdf-syntax-ns#"
   xmlns:svg="http://www.w3.org/2000/svg"
   xmlns="http://www.w3.org/2000/svg"
   xmlns:sodipodi="http://sodipodi.sourceforge.net/DTD/sodipodi-0.dtd"
   xmlns:inkscape="http://www.inkscape.org/namespaces/inkscape"
   width="210mm"
   height="297mm"
   viewBox="0 0 744.09448819 1052.3622047"
   id="svg2"
   version="1.1"
   inkscape:version="0.91 r13725"
   sodipodi:docname="151222_hauptunterverteiler_dauerstrom.svg">
  <defs
     id="defs4" />
  <sodipodi:namedview
     id="base"
     pagecolor="#ffffff"
     bordercolor="#666666"
     borderopacity="1.0"
     inkscape:pageopacity="0.0"
     inkscape:pageshadow="2"
     inkscape:zoom="0.48747188"
     inkscape:cx="217.43799"
     inkscape:cy="965.5222"
     inkscape:document-units="px"
     inkscape:current-layer="layer1"
     showgrid="false"
     inkscape:window-width="1366"
     inkscape:window-height="744"
     inkscape:window-x="0"
     inkscape:window-y="24"
     inkscape:window-maximized="1" />
  <metadata
     id="metadata7">
    <rdf:RDF>
      <cc:Work
         rdf:about="">
        <dc:format>image/svg+xml</dc:format>
        <dc:type
           rdf:resource="http://purl.org/dc/dcmitype/StillImage" />
        <dc:title />
      </cc:Work>
    </rdf:RDF>
  </metadata>
  <g
     inkscape:label="Ebene 1"
     inkscape:groupmode="layer"
     id="layer1">
    <path
       style="fill:none;fill-rule:evenodd;stroke:#803300;stroke-width:1px;stroke-linecap:butt;stroke-linejoin:miter;stroke-opacity:1"
       d="m 357.36754,139.52813 -0.35714,-1.42858 c -0.11905,-0.11904 -0.28185,-0.20655 -0.35714,-0.35714 1.51952,-50.242732 0.66804,-49.850642 -21.27019,-50.428962 -25.56197,-0.55806 -115.49051,-0.21541 -115.68978,-0.28181 -157.095703,-0.31668 -154.195703,-6.98971 -154.821493,44.976912 -0.0594,0.17823 0.10421,0.40731 0,0.56363 -0.29477,0.44215 -0.75151,0.7515 -1.12726,1.12726"
       id="path3352"
       inkscape:connector-curvature="0"
       sodipodi:nodetypes="cccccccc" />
    <rect
       style="fill:none;stroke:#000000;stroke-opacity:1"
       id="rect4215"
       width="14.372549"
       height="55.799309"
       x="251.15129"
       y="133.98125" />
    <rect
       style="fill:none;stroke:#000000;stroke-opacity:1"
       id="rect4215-2"
       width="14.372549"
       height="55.799309"
       x="233.81969"
       y="133.98125" />
    <rect
       style="fill:none;stroke:#000000;stroke-opacity:1"
       id="rect4215-2-0"
       width="14.372549"
       height="55.799309"
       x="217.19264"
       y="134.26306" />
    <rect
       style="fill:none;stroke:#000000;stroke-opacity:1"
       id="rect4215-2-7"
       width="14.372549"
       height="55.799309"
       x="268.20108"
       y="133.98125" />
    <rect
       style="fill:none;stroke:#000000;stroke-opacity:1"
       id="rect4215-2-0-6"
       width="28.745119"
       height="54.953857"
       x="185.06575"
       y="135.10851" />
    <rect
       style="fill:none;stroke:#000000;stroke-opacity:1"
       id="rect4215-2-0-6-6"
       width="28.745119"
       height="54.953857"
       x="153.36162"
       y="134.68579" />
    <path
       style="fill:none;fill-rule:evenodd;stroke:#0000ff;stroke-width:1px;stroke-linecap:butt;stroke-linejoin:miter;stroke-opacity:1"
       d="m 164.62117,190.45164 c 0.78969,17.1634 -24.85449,32.22326 -24.22303,-43.34368 C 139.2526,59.260388 72.918217,100.73189 72.936707,48.780828"
       id="path4307"
       inkscape:connector-curvature="0"
       sodipodi:nodetypes="ccc" />
    <rect
       style="fill:none;stroke:#000000;stroke-width:1.28526568;stroke-opacity:1"
       id="rect4215-2-0-6-4"
       width="47.732071"
       height="54.668591"
       x="298.32663"
       y="135.04675" />
    <rect
       style="fill:none;stroke:#000000;stroke-opacity:1"
       id="rect4215-2-7-5"
       width="4.7364492"
       height="55.292149"
       x="375.86603"
       y="134.4814" />
    <rect
       style="fill:none;stroke:#000000;stroke-opacity:1"
       id="rect4215-2-7-5-6"
       width="4.7364492"
       height="55.292149"
       x="381.69839"
       y="134.73499" />
    <rect
       style="fill:none;stroke:#000000;stroke-opacity:1"
       id="rect4215-2-7-5-9"
       width="4.7364492"
       height="55.292149"
       x="54.070652"
       y="133.72066" />
    <rect
       style="fill:none;stroke:#000000;stroke-opacity:1"
       id="rect4215-2-7-5-67"
       width="4.7364492"
       height="55.292149"
       x="60.663776"
       y="133.72066" />
    <rect
       style="fill:none;stroke:#000000;stroke-opacity:1"
       id="rect4215-2-7-5-3"
       width="4.7364492"
       height="55.292149"
       x="67.25692"
       y="133.72066" />
    <path
       style="fill:none;fill-rule:evenodd;stroke:#800000;stroke-width:1.0813241px;stroke-linecap:butt;stroke-linejoin:miter;stroke-opacity:1"
       d="m 120.90194,134.96565 c 0.8083,-50.241012 1.9316,-55.884932 120.00069,-55.018212 133.69546,0.98144 145.78173,-5.48778 144.10207,56.031722"
       id="path4401"
       inkscape:connector-curvature="0"
       sodipodi:nodetypes="csc" />
    <rect
       style="fill:none;stroke:#000000;stroke-opacity:1"
       id="rect4215-5"
       width="19.951351"
       height="55.799301"
       x="83.232567"
       y="132.45276" />
    <rect
       style="fill:none;stroke:#000000;stroke-opacity:1"
       id="rect4215-5-6"
       width="19.951351"
       height="55.799301"
       x="107.32284"
       y="135.49573" />
    <path
       style="fill:none;fill-rule:evenodd;stroke:#0000ff;stroke-width:1px;stroke-linecap:butt;stroke-linejoin:miter;stroke-opacity:1"
       d="m 100.19823,47.025668 c 0.41356,18.5988 3.01904,23.0248 27.89399,22.82237 l 243.80245,-0.50716 c 22.90325,-0.51897 42.01583,0.11025 42.60175,34.994292 l 1.01433,80.86826 c 0.44445,14.92997 4.28284,31.55691 -21.30088,33.4728 l -51.22352,-1.01433 c -10.05118,0.39992 -19.5282,-0.92261 -20.28655,-28.40116"
       id="path4437"
       inkscape:connector-curvature="0"
       sodipodi:nodetypes="cccccccc" />
    <path
       style="fill:none;fill-rule:evenodd;stroke:#800000;stroke-width:1.0813241px;stroke-linecap:butt;stroke-linejoin:miter;stroke-opacity:1"
       d="m 56.175647,189.66562 c 0.28149,28.37 16.74919,21.99196 36.82586,21.5635 20.085383,-0.42865 29.134083,5.66982 26.440093,-20.54999"
       id="path4401-3"
       inkscape:connector-curvature="0"
       sodipodi:nodetypes="csc" />
    <path
       style="fill:none;fill-rule:evenodd;stroke:#800000;stroke-width:1.0813241px;stroke-linecap:butt;stroke-linejoin:miter;stroke-opacity:1"
       d="m 69.710047,188.91045 c -1.24,14.16942 5.29064,15.44188 11.97484,14.97038 6.6842,-0.4715 14.42634,0.091 12.23951,-15.98553"
       id="path4401-3-1"
       inkscape:connector-curvature="0"
       sodipodi:nodetypes="czc" />
    <rect
       style="fill:none;stroke:#000000;stroke-opacity:1"
       id="rect4215-2-7-1"
       width="14.372549"
       height="55.799309"
       x="352.53647"
       y="134.48141" />
    <path
       style="fill:none;fill-rule:evenodd;stroke:#800000;stroke-width:1.0813241px;stroke-linecap:butt;stroke-linejoin:miter;stroke-opacity:1"
       d="m 359.66373,190.04641 c -0.22567,21.26971 7.91753,15.9847 7.91753,15.9847 0,0 12.90485,5.16265 10.71802,-16.49269"
       id="path4401-3-1-7"
       inkscape:connector-curvature="0"
       sodipodi:nodetypes="ccc" />
    <path
       style="fill:none;fill-rule:evenodd;stroke:#800000;stroke-width:1.0813241px;stroke-linecap:butt;stroke-linejoin:miter;stroke-opacity:1"
       d="m 322.43657,134.89194 c -0.20602,-22.85417 18.58884,-17.58439 30.23273,-17.99527 8.71276,-0.30744 24.06245,-4.98061 25.42577,16.98012"
       id="path4401-4"
       inkscape:connector-curvature="0"
       sodipodi:nodetypes="csc" />
    <path
       style="fill:none;fill-rule:evenodd;stroke:#800000;stroke-width:1.0813241px;stroke-linecap:butt;stroke-linejoin:miter;stroke-opacity:1"
       d="m 206.11827,133.92418 c -0.20602,-22.85416 -2.20487,-16.57005 9.43902,-16.98093 8.71276,-0.30744 7.83321,-4.47345 9.19653,17.48727"
       id="path4401-4-2"
       inkscape:connector-curvature="0"
       sodipodi:nodetypes="csc" />
    <path
       style="fill:none;fill-rule:evenodd;stroke:#803300;stroke-width:1px;stroke-linecap:butt;stroke-linejoin:miter;stroke-opacity:1"
       d="m 274.71194,133.99144 -0.35714,-1.42858 c -0.11905,-0.11904 -0.28185,-0.20655 -0.35714,-0.35714 1.11121,-39.384562 -4.2507,-32.490522 -64.95997,-34.710772 -129.307083,-1.44641 -149.829763,-4.1441 -152.482743,23.504492 -0.32219,3.35772 -0.38083,7.16299 -0.33875,11.47242 -0.0594,0.17823 0.10421,0.40731 0,0.56363"
       id="path3352-2"
       inkscape:connector-curvature="0"
       sodipodi:nodetypes="ccccscc" />
    <path
       style="fill:none;fill-rule:evenodd;stroke:#0000ff;stroke-width:1px;stroke-linecap:butt;stroke-linejoin:miter;stroke-opacity:1"
       d="m 41.223967,51.312218 c 1.95958,70.088552 50.93684,27.34388 49.70204,82.667672"
       id="path4544"
       inkscape:connector-curvature="0"
       sodipodi:nodetypes="cc" />
    <path
       style="fill:none;fill-rule:evenodd;stroke:#0000ff;stroke-width:1px;stroke-linecap:butt;stroke-linejoin:miter;stroke-opacity:1"
       d="m 53.891537,51.567208 c -2.09773,54.366482 63.615933,13.65046 63.902623,83.682002"
       id="path4544-2"
       inkscape:connector-curvature="0"
       sodipodi:nodetypes="cc" />
    <path
       style="fill:none;fill-rule:evenodd;stroke:#803300;stroke-width:1px;stroke-linecap:butt;stroke-linejoin:miter;stroke-opacity:1"
       d="m 258.14826,135.35908 -0.35714,-1.42858 c -0.11905,-0.11904 -0.28185,-0.20655 -0.35714,-0.35714 1.11121,-39.384562 -34.821,-25.66816 -95.53027,-27.88841 -55.26118,1.08941 -91.288113,-3.83751 -91.912443,14.68213 -0.11365,3.37123 -0.38083,7.16299 -0.33875,11.47242 -0.0594,0.17823 0.10421,0.40731 0,0.56363"
       id="path3352-2-7"
       inkscape:connector-curvature="0"
       sodipodi:nodetypes="ccccscc" />
    <path
       style="fill:none;fill-rule:evenodd;stroke:#0000ff;stroke-width:1px;stroke-linecap:butt;stroke-linejoin:miter;stroke-opacity:1"
       d="m 87.907377,47.009948 c 1.98307,25.12094 32.571123,34.79727 62.443013,36.99008 24.86996,1.82564 45.45248,18.904122 45.58285,50.749232"
       id="path4544-2-9"
       inkscape:connector-curvature="0"
       sodipodi:nodetypes="csc" />
    <path
       style="fill:none;fill-rule:evenodd;stroke:#800000;stroke-width:1px;stroke-linecap:butt;stroke-linejoin:miter;stroke-opacity:1"
       d="m 242.06078,133.9799 c 0.56756,-11.33559 4.77685,-23.30238 -23.83669,-22.82237 l -24.34386,-1.01432 c -19.04337,2.27399 -17.16027,8.98765 -16.7364,17.75072 l -1.01433,59.84531 c -3.88825,18.9086 -2.70487,10.16694 -6.59312,1.52149"
       id="path4591"
       inkscape:connector-curvature="0"
       sodipodi:nodetypes="cccccc" />
    <path
       style="fill:none;fill-rule:evenodd;stroke:#000000;stroke-width:1px;stroke-linecap:butt;stroke-linejoin:miter;stroke-opacity:1"
       d="m 258.79718,189.7679 0,8.11462 15.72208,0"
       id="path4593"
       inkscape:connector-curvature="0" />
    <path
       style="fill:none;fill-rule:evenodd;stroke:#000000;stroke-width:1px;stroke-linecap:butt;stroke-linejoin:miter;stroke-opacity:1"
       d="m 241.55003,189.54655 0,8.11462 15.72208,0"
       id="path4593-8"
       inkscape:connector-curvature="0" />
    <path
       style="fill:none;fill-rule:evenodd;stroke:#000000;stroke-width:1px;stroke-linecap:butt;stroke-linejoin:miter;stroke-opacity:1"
       d="m 224.30647,190.02506 0,8.11462 15.72208,0"
       id="path4593-7"
       inkscape:connector-curvature="0" />
    <path
       style="fill:none;fill-rule:evenodd;stroke:#000000;stroke-width:1px;stroke-linecap:butt;stroke-linejoin:miter;stroke-opacity:1"
       d="m 275.02283,190.02506 0,20.79371"
       id="path4593-75"
       inkscape:connector-curvature="0"
       sodipodi:nodetypes="cc" />
    <text
       xml:space="preserve"
       style="font-style:normal;font-weight:normal;font-size:10px;line-height:125%;font-family:sans-serif;letter-spacing:0px;word-spacing:0px;fill:#000000;fill-opacity:1;stroke:none;stroke-width:1px;stroke-linecap:butt;stroke-linejoin:miter;stroke-opacity:1"
       x="85.854362"
       y="167.45267"
       id="text4628"
       sodipodi:linespacing="125%"><tspan
         sodipodi:role="line"
         id="tspan4630"
         x="85.854362"
         y="167.45267">NT</tspan></text>
    <text
       xml:space="preserve"
       style="font-style:normal;font-weight:normal;font-size:10px;line-height:125%;font-family:sans-serif;letter-spacing:0px;word-spacing:0px;fill:#000000;fill-opacity:1;stroke:none;stroke-width:1px;stroke-linecap:butt;stroke-linejoin:miter;stroke-opacity:1"
       x="107.4629"
       y="166.53326"
       id="text4628-3"
       sodipodi:linespacing="125%"><tspan
         sodipodi:role="line"
         x="107.4629"
         y="166.53326"
         id="tspan4650">FSA</tspan></text>
    <path
       style="fill:none;fill-rule:evenodd;stroke:#000000;stroke-width:1px;stroke-linecap:butt;stroke-linejoin:miter;stroke-opacity:1"
       d="m 62.881607,153.95229 6.73099,0.0886"
       id="path4654"
       inkscape:connector-curvature="0" />
    <path
       style="fill:none;fill-rule:evenodd;stroke:#000000;stroke-width:1px;stroke-linecap:butt;stroke-linejoin:miter;stroke-opacity:1"
       d="m 384.37491,155.28077 -6.19959,0"
       id="path4665"
       inkscape:connector-curvature="0" />
    <text
       xml:space="preserve"
       style="font-style:normal;font-weight:normal;font-size:10px;line-height:125%;font-family:sans-serif;letter-spacing:0px;word-spacing:0px;fill:#000000;fill-opacity:1;stroke:none;stroke-width:1px;stroke-linecap:butt;stroke-linejoin:miter;stroke-opacity:1"
       x="156.9563"
       y="156.19125"
       id="text4628-3-3-6-8"
       sodipodi:linespacing="125%"><tspan
         sodipodi:role="line"
         x="156.9563"
         y="156.19125"
         id="tspan4650-2-7-4"
         style="font-size:7.5px">FI/LS</tspan><tspan
         sodipodi:role="line"
         x="156.9563"
         y="165.56625"
         id="tspan3436-3"
         style="font-size:7.5px">B16</tspan><tspan
         sodipodi:role="line"
         x="156.9563"
         y="174.94125"
         id="tspan3438-1"
         style="font-size:7.5px">30mA</tspan><tspan
         sodipodi:role="line"
         x="156.9563"
         y="184.31625"
         id="tspan3440-2" /></text>
    <text
       xml:space="preserve"
       style="font-style:normal;font-weight:normal;font-size:10px;line-height:125%;font-family:sans-serif;letter-spacing:0px;word-spacing:0px;fill:#000000;fill-opacity:1;stroke:none;stroke-width:1px;stroke-linecap:butt;stroke-linejoin:miter;stroke-opacity:1"
       x="188.56433"
       y="156.63315"
       id="text4628-3-3-6-7-6"
       sodipodi:linespacing="125%"><tspan
         sodipodi:role="line"
         x="188.56433"
         y="156.63315"
         id="tspan4650-2-7-0-1"
         style="font-size:7.5px">FI/LS</tspan><tspan
         sodipodi:role="line"
         x="188.56433"
         y="166.00815"
         id="tspan3436-0-3"
         style="font-size:7.5px">C16</tspan><tspan
         sodipodi:role="line"
         x="188.56433"
         y="175.38315"
         style="font-size:7.5px"
         id="tspan3469-0">10mA</tspan><tspan
         sodipodi:role="line"
         x="188.56433"
         y="184.75815"
         id="tspan3440-1-5" /></text>
  </g>
</svg>
